<svg width="64" height="64" viewBox="0 0 16 16" xmlns="http://www.w3.org/2000/svg" shape-rendering="crispEdges">
  <!-- База: Плотный синий цвет -->
  <rect x="0" y="0" width="16" height="16" fill="#2455C4" />
  
  <!-- Темные участки (глубина) -->
  <path d="M1 2h2v1H1z M5 1h2v1H5z M10 3h2v1H10z M14 1h2v1H14z M2 6h2v1H2z M7 5h2v1H7z M12 6h2v1H12z M4 10h2v1H4z M9 9h2v1H9z M14 11h2v1H14z M1 14h2v1H1z M6 13h2v1H6z M11 14h2v1H11z" fill="#1B3F96" />
  
  <!-- Светлые блики (рябь) -->
  <path d="M3 1h1v1H3z M8 2h1v1H8z M12 2h1v1H12z M0 5h1v1H0z M5 6h1v1H5z M9 5h1v1H9z M15 5h1v1H15z M2 9h1v1H2z M6 10h1v1H6z M11 10h1v1H11z M3 13h1v1H3z M8 14h1v1H8z M13 13h1v1H13z" fill="#4D84F0" />
</svg>